<svg id="Layer_1" data-name="Layer 1" xmlns="http://www.w3.org/2000/svg" xmlns:xlink="http://www.w3.org/1999/xlink" viewBox="0 0 224.76 290.17"><defs><style>.cls-1{fill:#3e4992;}.cls-1,.cls-10,.cls-11,.cls-12,.cls-13,.cls-14,.cls-15,.cls-16,.cls-17,.cls-18,.cls-19,.cls-2,.cls-20,.cls-21,.cls-22,.cls-23,.cls-24,.cls-25,.cls-26,.cls-27,.cls-28,.cls-29,.cls-3,.cls-30,.cls-31,.cls-32,.cls-33,.cls-34,.cls-35,.cls-36,.cls-37,.cls-38,.cls-39,.cls-4,.cls-40,.cls-41,.cls-42,.cls-43,.cls-44,.cls-45,.cls-46,.cls-47,.cls-48,.cls-49,.cls-5,.cls-50,.cls-51,.cls-52,.cls-53,.cls-54,.cls-55,.cls-56,.cls-57,.cls-58,.cls-59,.cls-6,.cls-7,.cls-8,.cls-9{fill-rule:evenodd;}.cls-2{fill:#c5dbf1;}.cls-3{fill:#5e6381;}.cls-4{fill:#2d2f3b;}.cls-5{fill:#111421;}.cls-6{fill:#5100ff;}.cls-7{fill:aqua;}.cls-8{fill:#1e00ff;}.cls-58,.cls-9{fill:#f4f8ff;}.cls-10{fill:#c2d6eb;}.cls-11{fill:#daeafa;}.cls-12{fill:#0d4d7a;}.cls-13{fill:#0a3c5f;}.cls-14{fill:#1466a0;}.cls-15{fill:#b4cce5;}.cls-16{fill:#fa5db1;}.cls-17{fill:url(#linear-gradient);}.cls-18{fill:url(#linear-gradient-2);}.cls-19{fill:url(#linear-gradient-3);}.cls-20{fill:url(#linear-gradient-4);}.cls-21{fill:#147890;}.cls-22{fill:#367cd0;}.cls-23{fill:url(#linear-gradient-5);}.cls-24{fill:#1989a5;}.cls-25{fill:url(#linear-gradient-6);}.cls-26{fill:url(#linear-gradient-7);}.cls-27{fill:url(#linear-gradient-8);}.cls-28{fill:#9f73f7;}.cls-29{fill:url(#linear-gradient-9);}.cls-30{fill:url(#linear-gradient-10);}.cls-31{fill:url(#linear-gradient-11);}.cls-32{fill:url(#linear-gradient-12);}.cls-33{fill:url(#linear-gradient-13);}.cls-34{fill:#e7a376;}.cls-35{fill:#c8865b;}.cls-36{fill:url(#linear-gradient-14);}.cls-37{fill:#062b45;}.cls-38{fill:url(#linear-gradient-15);}.cls-39{fill:url(#linear-gradient-16);}.cls-40{fill:url(#linear-gradient-17);}.cls-41{fill:#da9569;}.cls-42{fill:#f0b186;}.cls-43{fill:#2e141d;}.cls-44{fill:#48202e;}.cls-45{fill:url(#linear-gradient-18);}.cls-46{fill:url(#linear-gradient-19);}.cls-47{fill:url(#linear-gradient-20);}.cls-48{fill:#b6d0ea;}.cls-49{fill:#1f202b;}.cls-50{fill:url(#linear-gradient-21);}.cls-51{fill:url(#linear-gradient-22);}.cls-52{fill:url(#linear-gradient-23);}.cls-53{fill:url(#linear-gradient-24);}.cls-54{fill:url(#linear-gradient-25);}.cls-55{fill:#471f2c;}.cls-56{fill:url(#linear-gradient-26);}.cls-57{fill:url(#linear-gradient-27);}.cls-58{opacity:0.5;}.cls-59{fill:url(#linear-gradient-28);}</style><linearGradient id="linear-gradient" x1="73.67" y1="83.14" x2="78.82" y2="83.14" gradientUnits="userSpaceOnUse"><stop offset="0" stop-color="#a77ef7"/><stop offset="1" stop-color="#5e65d6"/></linearGradient><linearGradient id="linear-gradient-2" x1="71.88" y1="91.51" x2="76.44" y2="91.51" xlink:href="#linear-gradient"/><linearGradient id="linear-gradient-3" x1="64.97" y1="92.36" x2="68.38" y2="92.36" xlink:href="#linear-gradient"/><linearGradient id="linear-gradient-4" x1="51.53" y1="70.35" x2="56.68" y2="70.35" xlink:href="#linear-gradient"/><linearGradient id="linear-gradient-5" x1="56.28" y1="64.7" x2="60.83" y2="64.7" xlink:href="#linear-gradient"/><linearGradient id="linear-gradient-6" x1="217.67" y1="234.43" x2="222.58" y2="234.43" xlink:href="#linear-gradient"/><linearGradient id="linear-gradient-7" x1="203.49" y1="211.94" x2="210.88" y2="211.94" xlink:href="#linear-gradient"/><linearGradient id="linear-gradient-8" x1="217.17" y1="225.69" x2="222.59" y2="225.69" xlink:href="#linear-gradient"/><linearGradient id="linear-gradient-9" x1="64.98" y1="66.91" x2="68.45" y2="66.91" xlink:href="#linear-gradient"/><linearGradient id="linear-gradient-10" x1="207.76" y1="210.88" x2="214.24" y2="210.88" xlink:href="#linear-gradient"/><linearGradient id="linear-gradient-11" x1="211.1" y1="216.4" x2="218.48" y2="216.4" xlink:href="#linear-gradient"/><linearGradient id="linear-gradient-12" x1="216.78" y1="219.88" x2="222.27" y2="219.88" xlink:href="#linear-gradient"/><linearGradient id="linear-gradient-13" x1="221.47" y1="231.73" x2="224.72" y2="231.73" xlink:href="#linear-gradient"/><linearGradient id="linear-gradient-14" x1="177.8" y1="282.07" x2="205.03" y2="282.07" gradientUnits="userSpaceOnUse"><stop offset="0" stop-color="#fa79b6"/><stop offset="1" stop-color="#ffbfab"/></linearGradient><linearGradient id="linear-gradient-15" x1="177.73" y1="370.14" x2="198.22" y2="370.14" gradientUnits="userSpaceOnUse"><stop offset="0" stop-color="#3e4795"/><stop offset="1" stop-color="#273088"/></linearGradient><linearGradient id="linear-gradient-16" x1="171.43" y1="374.64" x2="204.81" y2="374.64" xlink:href="#linear-gradient-15"/><linearGradient id="linear-gradient-17" x1="177.72" y1="314.46" x2="208.14" y2="314.46" xlink:href="#linear-gradient-14"/><linearGradient id="linear-gradient-18" x1="187.85" y1="292.76" x2="199.43" y2="292.76" xlink:href="#linear-gradient-14"/><linearGradient id="linear-gradient-19" x1="190.91" y1="312.59" x2="208.58" y2="312.59" xlink:href="#linear-gradient-14"/><linearGradient id="linear-gradient-20" x1="190.92" y1="331.9" x2="202.96" y2="331.9" xlink:href="#linear-gradient-14"/><linearGradient id="linear-gradient-21" x1="214.26" y1="383.74" x2="236.89" y2="383.74" xlink:href="#linear-gradient-15"/><linearGradient id="linear-gradient-22" x1="227.45" y1="388.97" x2="244.09" y2="388.97" xlink:href="#linear-gradient-15"/><linearGradient id="linear-gradient-23" x1="220.59" y1="343.03" x2="242.55" y2="343.03" xlink:href="#linear-gradient-14"/><linearGradient id="linear-gradient-24" x1="235.31" y1="328.68" x2="267.24" y2="328.68" xlink:href="#linear-gradient-14"/><linearGradient id="linear-gradient-25" x1="226.29" y1="328.26" x2="236.59" y2="328.26" xlink:href="#linear-gradient-14"/><linearGradient id="linear-gradient-26" x1="311.63" y1="321.51" x2="327.83" y2="321.51" xlink:href="#linear-gradient"/><linearGradient id="linear-gradient-27" x1="312.43" y1="316.59" x2="322.99" y2="316.59" xlink:href="#linear-gradient"/><linearGradient id="linear-gradient-28" x1="271.5" y1="279.09" x2="327.52" y2="279.09" xlink:href="#linear-gradient"/></defs><path class="cls-1" d="M246.21,182.29l112.3,63.25c3.14,1.75,3.27,3.3,3.16,8.05l-9.57,91.22c-.22,2.69-.61,4-1.23,4.47L346,352.53,236.25,285.41c-2.47-1.48-3.11-2.63-3-7l7.46-94.81L244,182A2.79,2.79,0,0,1,246.21,182.29Z" transform="translate(-145.79 -146.09)"/><path class="cls-2" d="M243.49,185l111.32,62.7a5.42,5.42,0,0,1,2.19,1.89c.81,1.38.66,4,.62,5.56l-9.41,89.73c-.11,1.09-.56,4.44-1.13,4.75s-2-.43-2.35-.67h0l-111.2-62.62a6.16,6.16,0,0,1-1.86-1.54c-.9-1.25-.85-3.45-.82-4.91l9.58-92.7C240.72,184.44,241.12,183.76,243.49,185Z" transform="translate(-145.79 -146.09)"/><path class="cls-3" d="M297.68,217.27c1.7-.47,4.08,1,5.31,3.27s.84,4.52-.87,5-4.08-1-5.31-3.28S296,217.74,297.68,217.27Z" transform="translate(-145.79 -146.09)"/><path class="cls-4" d="M298,218c1.43-.4,3.42.83,4.44,2.73s.71,3.78-.72,4.17-3.41-.83-4.44-2.74S296.62,218.34,298,218Z" transform="translate(-145.79 -146.09)"/><path class="cls-5" d="M298.61,219c1-.27,2.38.58,3.09,1.91s.49,2.63-.5,2.9-2.38-.58-3.1-1.9S297.61,219.27,298.61,219Z" transform="translate(-145.79 -146.09)"/><path class="cls-6" d="M299.17,220c.56-.16,1.34.33,1.75,1.08s.28,1.48-.29,1.64a1.81,1.81,0,0,1-1.75-1.08C298.48,220.93,298.61,220.19,299.17,220Z" transform="translate(-145.79 -146.09)"/><path class="cls-7" d="M299.41,220.48a1.19,1.19,0,0,1,1.18.73c.27.51.19,1-.19,1.11a1.23,1.23,0,0,1-1.19-.73C298.94,221.08,299,220.58,299.41,220.48Z" transform="translate(-145.79 -146.09)"/><path class="cls-8" d="M299.63,220.89a.66.66,0,0,1,.65.4c.15.28.11.56-.1.62a.7.7,0,0,1-.66-.41C299.37,221.22,299.42,221,299.63,220.89Z" transform="translate(-145.79 -146.09)"/><path class="cls-9" d="M310,231.82l-10.89-6.18-51.58-29.25c-1.36-.49-1.65.27-1.88,2.36l-.75,7.31q-1.49,14.64-3,29.25-1.83,17.91-3.64,35.79a6.94,6.94,0,0,0,.75,3.82,5.19,5.19,0,0,0,1.67,1.38l100.08,56.32h0c.35.22,1.67.84,2.1.61s.91-3.28,1-4.26l7.29-68.48c0-1.39.17-3.74-.55-5a4.89,4.89,0,0,0-2-1.69Z" transform="translate(-145.79 -146.09)"/><path class="cls-10" d="M346,262.75,248.57,207.4l-.32,3.44,97.46,55.35.31-3.44ZM282.46,233l63.05,35.31-.31,3.44-63.05-35.3.31-3.45Zm61.29,54.74L246.3,232.36,247.62,218l97.46,55.36Z" transform="translate(-145.79 -146.09)"/><path class="cls-1" d="M346.44,353.55l-66.81,37.93c-11.36,6.41-16.35,8.35-28.33,1.39L148.14,332.6c-1.38-.94-2.23-1.52-2.26-2.65l-.09-4.26c.42-1.18,1.88.79,4.83-.73l75.18-41.83c4.9-1.88,8.12-2.39,12.06-.32L349.59,345.3l2.09-.85c-.17,4,.6,3.9-2.17,6.85A12.27,12.27,0,0,1,346.44,353.55Z" transform="translate(-145.79 -146.09)"/><path class="cls-11" d="M349.17,343.76,237.39,279.52c-4-2.08-7.19-1.18-11.19.35l-75.14,41.81c-6.64,3.42-4.45,5,.86,8.06l97.91,57.05c11.63,5.93,13.89,8.1,31.81-1.69L346,348.58C347.18,347.92,351.18,345.45,349.17,343.76Z" transform="translate(-145.79 -146.09)"/><path class="cls-2" d="M332.53,349.45l-55,31.21c-8.8,4.17-15,.12-17.76-1.38l-88.28-51.45c-4.55-2.82-9.47-5.39-3.21-8.94l57.23-31.84c3.73-1.44,6.18-1.83,9.18-.24L335,344.54C336.75,345.91,335.32,347.93,332.53,349.45Z" transform="translate(-145.79 -146.09)"/><path class="cls-12" d="M279.16,336.22v1.3l5.94,3.46v-1.31l-5.94-3.45Zm-50.5-29.48V308l5.94,3.45v-1.3l-5.94-3.45Zm-56.42,13.45v1.3l5.94,3.46v-1.31l-5.94-3.45Zm8-4.59v1.29l5.94,3.46V319l-5.94-3.44Zm8-4.6v1.3l5.93,3.45v-1.3L188.17,311Zm8-4.6v1.3l5.94,3.46v-1.31l-5.94-3.45Zm8-4.59v1.3l5.94,3.45v-1.3l-5.94-3.45Zm8-4.6v1.31L218,302v-1.31L212,297.21Zm-31.58,27.53V326l5.94,3.46v-1.31l-5.94-3.45Zm8-4.59v1.29l5.94,3.46v-1.31l-5.93-3.44Zm8-4.6v1.3l5.94,3.45V319l-5.93-3.45Zm8-4.6v1.3l5.94,3.46V314.4L204.34,311Zm8-4.59v1.3l5.94,3.45v-1.3l-5.93-3.45Zm7.95-4.6v1.31l5.93,3.45v-1.31l-5.94-3.45Zm-5.89,42.78v1.3l5.94,3.45V348l-5.94-3.45Zm8-4.6v1.3l5.94,3.46v-1.31l-5.94-3.45Zm8-4.59v1.3l5.94,3.45v-1.3l-5.93-3.45Zm7.95-4.6v1.3l5.94,3.46V334.2l-5.94-3.45Zm8-4.6v1.31l5.94,3.45v-1.3l-5.94-3.46Zm8-4.59v1.31l5.93,3.44V325l-5.94-3.45Zm-48.3,18v1.3l5.94,3.45v-1.3l-5.94-3.45Zm8-4.6v1.3l5.94,3.45v-1.3L213.83,335Zm8-4.59v1.3l5.94,3.45v-1.3l-5.94-3.45Zm8-4.6v1.3l5.94,3.45v-1.3l-5.94-3.45Zm8-4.59v1.29l5.93,3.46v-1.31l-5.94-3.44Zm8-4.6v1.3l5.94,3.45v-1.3l-5.94-3.45Zm-48.31,18V336l5.94,3.45v-1.3l-5.94-3.46Zm8-4.59v1.3l5.94,3.45v-1.3l-5.93-3.45Zm8-4.6v1.31l5.94,3.44v-1.29l-5.94-3.46Zm8-4.59v1.3l5.94,3.45v-1.3l-5.95-3.45Zm8-4.6v1.31l5.94,3.44v-1.29l-5.93-3.46Zm7.95-4.59V313l5.94,3.45v-1.3l-6-3.45Zm-48.3,18V331l5.94,3.45v-1.3l-5.94-3.46Zm8-4.59v1.3l5.94,3.45v-1.3l-5.93-3.45Zm8-4.6v1.3l5.94,3.46V324l-5.93-3.45Zm8-4.59v1.3l5.93,3.45v-1.3l-5.94-3.45Zm8-4.6v1.3l5.93,3.46v-1.31l-5.93-3.45Zm2,38.35V351l5.94,3.45v-1.3l-5.94-3.45Zm8-4.6v1.3l5.94,3.45v-1.3l-5.94-3.45Zm8-4.6v1.3l5.94,3.45v-1.29l-5.93-3.46Zm8-4.59v1.3l5.94,3.45v-1.3l-5.94-3.45Zm8-4.6v1.3l5.94,3.45v-1.3l-5.94-3.45Zm8-4.59V328l5.93,3.45v-1.3l-5.94-3.45ZM231,354.23v1.3L236.9,359v-1.3L231,354.23Zm8-4.6v1.3l5.94,3.45v-1.3l-5.93-3.45Zm8-4.6v1.31l5.94,3.44v-1.29L246.89,345Zm8-4.59v1.3l5.94,3.45v-1.3l-5.94-3.45Zm8-4.6v1.3l5.94,3.45v-1.3l-5.93-3.45Zm7.95-4.59v1.3L276.7,336v-1.3l-5.94-3.45ZM264.87,374v1.29l5.94,3.46v-1.31L264.87,374Zm8-4.6v1.3l5.93,3.45v-1.3l-5.93-3.45Zm8-4.6v1.3l5.94,3.45v-1.3l-5.93-3.45Zm7.95-4.59v1.3l5.94,3.45v-1.3l-5.94-3.45Zm8-4.6v1.3l5.93,3.45v-1.3l-5.93-3.45Zm7.95-4.59v1.3l5.93,3.45v-1.31l-5.94-3.44Zm-48.3,18v1.31l5.94,3.44v-1.3l-5.94-3.45Zm8-4.6v1.31l5.94,3.45v-1.3l-5.94-3.46Zm8-4.59v1.3l5.94,3.45v-1.3l-5.94-3.45Zm8-4.6v1.31l5.94,3.45v-1.3l-5.94-3.46Zm8-4.59V352l5.93,3.45v-1.3l-5.94-3.45Zm8-4.6v1.31l5.94,3.44v-1.29l-5.94-3.46Zm-48.31,18v1.3l5.94,3.46v-1.31l-5.94-3.45Zm8-4.59v1.29l5.94,3.46V363l-5.94-3.45Zm8-4.6v1.3l5.94,3.45v-1.3L263.79,355Zm7.95-4.6v1.3l5.94,3.46v-1.3l-5.95-3.46Zm8-4.59v1.3l5.94,3.45v-1.3l-5.94-3.45Zm8-4.6v1.3l5.94,3.46v-1.3l-5.95-3.46Zm-48.3,18v1.3L245.3,364v-1.3l-5.94-3.45Zm8-4.59v1.29l5.94,3.46v-1.31l-5.93-3.44Zm8-4.6v1.3l5.94,3.45v-1.3L255.29,350Zm8-4.6v1.3l5.93,3.46v-1.31l-5.94-3.45Zm8-4.59v1.3l5.94,3.45v-1.3Z" transform="translate(-145.79 -146.09)"/><path class="cls-13" d="M285.1,339.67V341l5.66-3.28v-1.29l-5.66,3.26Zm-50.5-29.48v1.3l5.66-3.27v-1.3l-5.66,3.27Zm-56.42,13.45V325l5.66-3.28v-1.29l-5.66,3.26Zm8-4.6v1.31l5.67-3.28v-1.29L186.14,319Zm8-4.59v1.3l5.67-3.27v-1.3l-5.66,3.27Zm8-4.6v1.31l5.67-3.28v-1.3l-5.66,3.27Zm8-4.59v1.3l5.67-3.27V302L210,305.26Zm8-4.6V302l5.67-3.28v-1.3L218,300.66ZM186.4,328.19v1.31l5.67-3.28v-1.29l-5.67,3.26Zm8-4.6v1.31l5.66-3.28v-1.29l-5.67,3.26Zm8-4.59v1.3L208,317v-1.3L202.32,319Zm8-4.6v1.31l5.67-3.28v-1.3l-5.67,3.27Zm8-4.59v1.3l5.66-3.27v-1.3l-5.66,3.27Zm8-4.6v1.31l5.67-3.28v-1.3l-5.66,3.27ZM220.31,348v1.3L226,346v-1.3L220.31,348Zm8-4.6v1.31l5.67-3.28v-1.3l-5.67,3.27Zm8-4.59v1.3l5.66-3.27v-1.3l-5.66,3.27Zm8-4.6v1.31l5.67-3.28v-1.3l-5.66,3.27Zm8-4.59v1.3l5.67-3.27v-1.3l-5.66,3.27Zm8-4.6v1.3l5.67-3.27v-1.3L260.11,325Zm-48.3,18v1.3l5.66-3.27v-1.3l-5.66,3.27Zm8-4.6v1.3l5.67-3.26v-1.31l-5.66,3.27Zm8-4.59v1.3l5.66-3.27v-1.3l-5.66,3.27Zm8-4.6v1.3l5.67-3.27V326l-5.66,3.27Zm8-4.6V326l5.66-3.27v-1.3l-5.66,3.26Zm8-4.59v1.3l5.66-3.27v-1.3l-5.66,3.27Zm-48.31,18v1.3l5.66-3.27v-1.3l-5.67,3.27Zm8-4.6v1.3l5.66-3.26v-1.31l-5.67,3.27Zm8-4.59v1.29l5.66-3.26v-1.3l-5.66,3.27Zm8-4.6v1.3l5.67-3.27v-1.3l-5.66,3.27Zm7.95-4.59V321l5.66-3.26v-1.3l-5.67,3.27Zm8-4.6v1.3l5.66-3.27v-1.3l-5.66,3.27Zm-48.31,18v1.3l5.67-3.27v-1.3l-5.67,3.27Zm8-4.6v1.3l5.66-3.27v-1.3l-5.67,3.27Zm8-4.6v1.31l5.66-3.27V320.7L210.72,324Zm8-4.59v1.3l5.67-3.27v-1.3l-5.67,3.27Zm8-4.6v1.31l5.67-3.27v-1.31l-5.66,3.27Zm2,38.35v1.3l5.66-3.27v-1.3l-5.66,3.27Zm8-4.6v1.3l5.67-3.27v-1.3l-5.67,3.27Zm8-4.59v1.29l5.66-3.26v-1.3l-5.66,3.27Zm8-4.6v1.3l5.67-3.27v-1.3l-5.66,3.27Zm8-4.6V336l5.67-3.27v-1.29l-5.66,3.26Zm8-4.59v1.3l5.67-3.27v-1.3l-5.66,3.27ZM236.9,357.68V359l5.67-3.27v-1.3l-5.67,3.27Zm8-4.6v1.3l5.66-3.27v-1.3l-5.67,3.27Zm8-4.59v1.29l5.66-3.26v-1.3l-5.67,3.27Zm8-4.6v1.3l5.67-3.27v-1.3l-5.67,3.27Zm8-4.6v1.3l5.66-3.27V336l-5.66,3.26Zm8-4.59V336l5.67-3.27v-1.3l-5.66,3.27Zm-5.89,42.77v1.31l5.67-3.27v-1.3l-5.67,3.26Zm8-4.59v1.3l5.67-3.27v-1.3l-5.67,3.27Zm8-4.6v1.3l5.66-3.27V365l-5.66,3.26Zm8-4.59V365l5.67-3.27v-1.3l-5.66,3.27Zm8-4.6v1.3l5.67-3.27v-1.3l-5.66,3.27Zm8-4.6v1.31l5.67-3.28v-1.29l-5.66,3.26Zm-48.3,18v1.3l5.67-3.27v-1.3l-5.66,3.27Zm8-4.59v1.3l5.67-3.27v-1.3l-5.66,3.27Zm8-4.6v1.3l5.66-3.26v-1.31l-5.66,3.27Zm8-4.59v1.3l5.67-3.27v-1.31l-5.66,3.28Zm8-4.6v1.3l5.66-3.27v-1.3l-5.66,3.27Zm8-4.59v1.29l5.66-3.26v-1.31l-5.66,3.28Zm-48.31,18v1.31l5.66-3.28v-1.3l-5.67,3.27Zm8-4.59v1.3l5.66-3.27v-1.3L261.77,363Zm8-4.6v1.3l5.66-3.27v-1.3l-5.66,3.27Zm8-4.59v1.3l5.67-3.27v-1.31l-5.66,3.28Zm8-4.6v1.3l5.66-3.27v-1.3l-5.66,3.27Zm8-4.59v1.3l5.67-3.27v-1.31l-5.66,3.28Zm-48.31,18V364l5.67-3.27v-1.3l-5.67,3.27Zm8-4.6v1.31l5.66-3.27v-1.3l-5.67,3.26Zm8-4.59v1.3l5.66-3.27v-1.3l-5.67,3.27Zm8-4.6v1.31l5.67-3.28V345.6l-5.67,3.26Zm8-4.59v1.3l5.66-3.27V341Z" transform="translate(-145.79 -146.09)"/><path class="cls-14" d="M228.66,306.74l5.94,3.45,5.66-3.27-5.93-3.45-5.67,3.27Zm50.5,29.48,5.94,3.45,5.66-3.26L284.83,333l-5.67,3.27Zm-56.42,13.46,5.94,3.45,5.66-3.27-5.93-3.46-5.67,3.28Zm8-4.6,5.67-3.27,5.94,3.45-5.67,3.27-5.94-3.45Zm8-4.6,5.93,3.46,5.66-3.27-5.94-3.46-5.65,3.27Zm8-4.59,5.67-3.27,5.93,3.45-5.66,3.27-5.94-3.45Zm8-4.6,5.94,3.45,5.66-3.26L260.24,328l-5.66,3.27Zm8-4.59,5.66-3.28,5.94,3.46-5.66,3.27-5.94-3.45ZM231,354.23l5.67-3.28,5.94,3.46-5.67,3.27L231,354.23Zm8-4.6,5.93,3.45,5.67-3.27-5.94-3.45-5.66,3.27Zm8-4.6,5.66-3.27,5.94,3.46-5.67,3.27L246.89,345Zm8-4.59,5.94,3.45,5.67-3.27-5.94-3.45-5.67,3.27Zm8-4.6,5.65-3.27L274.4,336l-5.66,3.26-5.93-3.45Zm7.95-4.59,5.67-3.28,5.93,3.46-5.66,3.27-5.94-3.45ZM264.87,374l5.94,3.44,5.67-3.26-5.94-3.46L264.87,374Zm8-4.6,5.66-3.27,5.94,3.45-5.67,3.27-5.93-3.45Zm8-4.6,5.93,3.45,5.66-3.26-5.94-3.46-5.65,3.27Zm7.95-4.59,5.67-3.28,5.93,3.46-5.66,3.27-5.94-3.45Zm8-4.6,5.93,3.45,5.66-3.27-5.94-3.45-5.65,3.27Zm7.95-4.59,5.66-3.28,5.94,3.46-5.66,3.26-5.94-3.44Zm-48.3,18,5.66-3.27,5.94,3.45-5.66,3.27-5.94-3.45Zm8-4.6,5.94,3.46,5.66-3.27L270,361.22l-5.66,3.26Zm8-4.59,5.66-3.27,5.94,3.45-5.66,3.27-5.94-3.45Zm8-4.6,5.94,3.46,5.66-3.28L285.91,352l-5.66,3.27Zm8-4.59,5.66-3.27,5.94,3.45-5.66,3.27-5.94-3.45Zm8-4.6,5.94,3.46,5.66-3.28-5.94-3.45-5.66,3.27Zm-48.31,18,5.94,3.45,5.67-3.27-5.94-3.45-5.67,3.27Zm8-4.59,5.66-3.28,5.94,3.46L261.77,363l-5.94-3.45Zm8-4.6,5.94,3.45,5.66-3.27-5.94-3.45L263.79,355Zm7.95-4.6,5.67-3.27,5.94,3.45-5.66,3.28-5.95-3.46Zm8-4.59,5.94,3.45,5.66-3.27-5.94-3.45-5.66,3.27Zm8-4.6,5.67-3.27,5.94,3.45-5.66,3.28-5.95-3.46Zm-48.3,18,5.94,3.45,5.67-3.27L245,355.93l-5.67,3.27Zm8-4.59,5.66-3.28,5.94,3.46-5.67,3.26-5.93-3.44Zm8-4.6,5.93,3.45,5.67-3.27L261,346.74,255.29,350Zm8-4.6,5.67-3.27,5.94,3.46-5.67,3.26-5.94-3.45Zm8-4.59,5.66-3.27L282.8,341l-5.65,3.27-5.94-3.45Zm-99-20.63,5.94,3.45,5.66-3.26-5.94-3.46-5.66,3.27Zm8-4.59,5.67-3.28,5.94,3.46L186.14,319l-5.94-3.44Zm8-4.6,5.93,3.45,5.66-3.27-5.94-3.45L188.17,311Zm8-4.6,5.66-3.27,5.94,3.45-5.66,3.27-5.94-3.45Zm8-4.59,5.94,3.45,5.66-3.27-5.94-3.45-5.66,3.27Zm8-4.6,5.66-3.27,5.94,3.45L218,300.66,212,297.21Zm-31.58,27.53,5.67-3.27,5.94,3.46-5.67,3.26-5.94-3.45Zm8-4.59,5.93,3.44,5.67-3.26-5.94-3.46-5.66,3.28Zm8-4.6,5.66-3.27,5.93,3.45L202.32,319l-5.93-3.45Zm8-4.6,5.94,3.45,5.67-3.27L210,307.68,204.34,311Zm8-4.59,5.65-3.27,5.94,3.45-5.66,3.27-5.93-3.45Zm7.95-4.6,5.67-3.27,5.93,3.45-5.66,3.27-5.94-3.45Zm-5.89,42.78,5.67-3.27,5.93,3.45L220.31,348l-5.94-3.45Zm8-4.6,5.94,3.45,5.67-3.27L228,336.67l-5.67,3.27Zm8-4.59,5.65-3.27,5.94,3.45-5.66,3.27-5.93-3.45Zm7.95-4.6,5.94,3.45,5.66-3.27-5.93-3.45-5.67,3.27Zm8-4.6,5.66-3.26,5.94,3.45-5.66,3.27-5.94-3.46Zm8-4.59,5.94,3.45,5.66-3.27-5.94-3.45-5.66,3.27Zm-48.3,18,5.94,3.45,5.66-3.27-5.94-3.45-5.66,3.27Zm8-4.6,5.66-3.27,5.94,3.45-5.66,3.27L213.83,335Zm8-4.59,5.94,3.45,5.66-3.27-5.94-3.45-5.66,3.27Zm8-4.6,5.66-3.27,5.94,3.45-5.66,3.27-5.94-3.45Zm8-4.59,5.94,3.44,5.66-3.26L243.37,318l-5.66,3.27Zm8-4.6,5.66-3.27,5.94,3.45-5.66,3.27-5.94-3.45Zm-48.31,18,5.67-3.26,5.94,3.45-5.67,3.27-5.94-3.46Zm8-4.59,5.93,3.45,5.67-3.27L211,326.79l-5.66,3.27Zm8-4.6,5.66-3.27,5.94,3.46-5.66,3.27-5.94-3.46Zm8-4.59,5.95,3.45,5.66-3.27-5.94-3.45-5.67,3.27Zm8-4.6,5.66-3.27,5.94,3.46-5.67,3.27-5.93-3.46Zm7.95-4.59,5.67-3.28,5.94,3.46-5.66,3.27-6-3.45Zm-48.3,18,5.94,3.46,5.67-3.27-5.94-3.45-5.67,3.26Zm8-4.59,5.66-3.27,5.94,3.45-5.67,3.27-5.93-3.45Zm8-4.6,5.93,3.45,5.66-3.27-5.94-3.44-5.65,3.26Zm8-4.59,5.67-3.27,5.94,3.45-5.67,3.27-5.94-3.45Zm8-4.6,5.66-3.27,5.93,3.45-5.66,3.27Z" transform="translate(-145.79 -146.09)"/><path class="cls-15" d="M230.75,165.44l-.16,8.42c0,2.36.9,14.87-.39,16.59a8,8,0,0,0,2.2-1.46,2.64,2.64,0,0,0,.38-1.46l.05-23.12a6.65,6.65,0,0,0-3-5.21l-22-12.71a2.21,2.21,0,0,0-2.15-.2l-1.69,1c.05,0,5.07,2.75,5.17,2.8l18.7,10.43A20,20,0,0,1,230.75,165.44Z" transform="translate(-145.79 -146.09)"/><path class="cls-11" d="M228.12,160.19l-22-12.7c-1.66-1-3-.18-3,1.72L203,172.33a6.67,6.67,0,0,0,3,5.21l22,12.7c1.65,1,3,.19,3-1.71l0-23.13A6.67,6.67,0,0,0,228.12,160.19Z" transform="translate(-145.79 -146.09)"/><polygon class="cls-15" points="62.51 19.8 64.04 18.77 68.84 24.3 77.7 15.1 81.5 15.12 71.79 34.68 68.44 33.03 59.31 18.46 62.51 19.8"/><polygon class="cls-16" points="60.18 19.09 59.24 18.36 60.8 17.46 63.99 18.71 62.06 20.04 61.68 19.85 60.18 19.09"/><polygon class="cls-16" points="61.8 20.35 62.08 19.81 63.99 18.71 69.11 23.57 65.57 25.96 64.32 23 61.8 20.35"/><polygon class="cls-12" points="77.99 17.17 81.51 15.12 70.46 31.83 68.9 32.74 68.62 30.83 72.81 24.21 77.99 17.17"/><polygon class="cls-16" points="77.06 15.96 77.47 14.79 79.03 13.9 81.51 15.12 77.99 17.17 76.3 17.02 77.06 15.96"/><polygon class="cls-16" points="77.48 14.79 79.95 16.02 68.91 32.73 59.23 18.36 62.43 19.61 67.55 24.46 77.48 14.79"/><polygon class="cls-17" points="76.81 81.64 75.29 82.24 73.67 83.47 75.69 84.63 77.15 84.15 78.82 82.81 76.81 81.64"/><polygon class="cls-18" points="75.02 89.36 73.29 90.22 71.88 91.19 73.3 93.65 74.61 93.01 76.44 91.83 75.02 89.36"/><polygon class="cls-19" points="64.97 91.91 65.24 94.42 68.37 92.6 68.38 90.29 64.97 91.91"/><polygon class="cls-20" points="54.66 68.86 51.53 70.68 53.54 71.85 56.68 70.03 54.66 68.86"/><path class="cls-21" d="M213.37,233.11l3.13-2.42c-1.48.86-3.32.11-4.59-.78a12.56,12.56,0,0,1-5-9.17,4.09,4.09,0,0,1,1.63-3.73L205,218.7C199.15,222.14,207.57,236.58,213.37,233.11Z" transform="translate(-145.79 -146.09)"/><path class="cls-22" d="M219.09,239.74a5.41,5.41,0,0,1-1.06.79l3.13-1.82a5.21,5.21,0,0,0,.55-.36l.52-.43Z" transform="translate(-145.79 -146.09)"/><polygon class="cls-23" points="59.41 62.34 56.28 64.16 57.68 67.07 60.83 64.8 59.41 62.34"/><path class="cls-21" d="M202.07,210.25l3.13-1.82a5.62,5.62,0,0,0-1.31.56l-3.13,1.82A5.88,5.88,0,0,1,202.07,210.25Z" transform="translate(-145.79 -146.09)"/><path class="cls-24" d="M215.9,224.11a8.8,8.8,0,0,0-2.05-3.44c-.91-.93-2.6-2.06-3.92-1.29l-3.13,1.82,5.19,8.94,3.13-1.82C216.41,227.51,216.28,225.35,215.9,224.11Z" transform="translate(-145.79 -146.09)"/><path class="cls-25" d="M222.58,231.58l-3.4,1.42c-.22,1.4-.5,3.25-1.51,4.28l3.13-1.83A7.06,7.06,0,0,0,222.58,231.58Z" transform="translate(-145.79 -146.09)"/><path class="cls-26" d="M207.75,213.14l3.13-1.82a7.16,7.16,0,0,0-4.26-.43l-3.13,1.82A7.17,7.17,0,0,1,207.75,213.14Z" transform="translate(-145.79 -146.09)"/><path class="cls-27" d="M219.46,229.56l3.13-1.82a20.8,20.8,0,0,0-1.75-5.92l-3.67,1.52A23.89,23.89,0,0,1,219.46,229.56Z" transform="translate(-145.79 -146.09)"/><path class="cls-28" d="M209.41,221.46c-2-1.17-3.68-.23-3.68,2.09a8,8,0,0,0,3.65,6.34c2,1.16,3.67.22,3.68-2.1A8,8,0,0,0,209.41,221.46Z" transform="translate(-145.79 -146.09)"/><polygon class="cls-29" points="64.98 66.48 65.31 68.98 68.44 67.16 68.45 64.84 64.98 66.48"/><path class="cls-30" d="M211.11,212.75l3.13-1.82a16.66,16.66,0,0,0-3.35-1.93l-3.13,1.82A16.94,16.94,0,0,1,211.11,212.75Z" transform="translate(-145.79 -146.09)"/><path class="cls-31" d="M215.35,219.56l2.24-.33.89-1.49a21.06,21.06,0,0,0-4.25-4.49l-3.13,1.82A21.06,21.06,0,0,1,215.35,219.56Z" transform="translate(-145.79 -146.09)"/><path class="cls-32" d="M219.14,222.83l3.13-1.82a28.18,28.18,0,0,0-2.36-4.09l-3.13,1.82A29.71,29.71,0,0,1,219.14,222.83Z" transform="translate(-145.79 -146.09)"/><path class="cls-28" d="M209.37,232.12a12.33,12.33,0,0,1-5.59-9.69c0-3.56,2.53-5,5.63-3.21a12.33,12.33,0,0,1,5.59,9.69c0,3.56-2.53,5-5.63,3.21Zm12.11-1.4-2-1.16a20.94,20.94,0,0,0-1.75-5.92l1.43-.81a29.71,29.71,0,0,0-2.36-4.09l-1.43.82a21.2,21.2,0,0,0-4.25-4.49v-2.32a19.22,19.22,0,0,0-1.68-1.09,15.36,15.36,0,0,0-1.67-.84v2.32a7.06,7.06,0,0,0-4.26-.43l-1.42-2.46a5.88,5.88,0,0,0-2.38,1.35l1.42,2.46a7.06,7.06,0,0,0-1.78,3.88l-2-1.17a13.84,13.84,0,0,0-.12,1.86,16.82,16.82,0,0,0,.11,2l2,1.16a21.21,21.21,0,0,0,1.75,5.91l-1.43.82A30.78,30.78,0,0,0,202,232.6l1.43-.82a21.24,21.24,0,0,0,4.26,4.49v2.31a17.14,17.14,0,0,0,1.67,1.1,14.61,14.61,0,0,0,1.68.84V238.2a7.08,7.08,0,0,0,4.27.43l1.42,2.46a5.91,5.91,0,0,0,2.37-1.35l-1.42-2.46a7,7,0,0,0,1.78-3.88l2,1.17a18.17,18.17,0,0,0,.12-1.86A19.26,19.26,0,0,0,221.48,230.72Z" transform="translate(-145.79 -146.09)"/><path class="cls-33" d="M224.61,228.9l-3.13,1.82a17.09,17.09,0,0,1,0,3.85l3.13-1.82A16,16,0,0,0,224.61,228.9Z" transform="translate(-145.79 -146.09)"/><path class="cls-15" d="M310.53,184.92l-.16,8.42c0,2.36.9,14.87-.38,16.59a8,8,0,0,0,2.19-1.46,2.57,2.57,0,0,0,.39-1.46l.05-23.12a6.67,6.67,0,0,0-3-5.21L287.6,166a2.19,2.19,0,0,0-2.14-.2l-1.7,1c.05,0,5.07,2.75,5.17,2.8L307.63,180A20,20,0,0,1,310.53,184.92Z" transform="translate(-145.79 -146.09)"/><path class="cls-11" d="M307.91,179.67l-22-12.7c-1.66-1-3-.18-3,1.72l0,23.12a6.61,6.61,0,0,0,3,5.21l22,12.7c1.66,1,3,.19,3-1.71l0-23.13A6.66,6.66,0,0,0,307.91,179.67Z" transform="translate(-145.79 -146.09)"/><path class="cls-15" d="M291.46,176.57a9.67,9.67,0,0,1,4.41,6.05c.87-2,3.14-2.1,5.1-1a11.25,11.25,0,0,1,5.14,9.09c0,2.77-1.58,5.58-6.12,7.42-1.53.63-3.64,1.34-4.08,1.1l-.1,0-.08,0c-.53-.31-2.54-3.42-4.06-5.81-4.51-7.07-5.76-11.15-5.72-13.88C285.92,175.82,288.72,175,291.46,176.57Z" transform="translate(-145.79 -146.09)"/><path class="cls-12" d="M287.41,176.52l.93-.54a3.65,3.65,0,0,1,3.39.25,2.79,2.79,0,0,1,.34.18,9.69,9.69,0,0,1,4.13,5.26c0,.16.1.32.14.48l-2.14,1.37C291.39,176.72,290.18,179.12,287.41,176.52Z" transform="translate(-145.79 -146.09)"/><path class="cls-12" d="M296.34,181.52l1-.57a3.42,3.42,0,0,1,3.29.4,10.56,10.56,0,0,1,3.14,3,.22.22,0,0,0,.05.08c2.24,3.18,2.56,7-.39,9.73a21.4,21.4,0,0,1-3.78,2.32c2.77-1.61,2.86-4,2.84-6.11C301.17,182.43,296.4,182.74,296.34,181.52Z" transform="translate(-145.79 -146.09)"/><path class="cls-12" d="M305.38,187.74a6.36,6.36,0,0,1-1.95,6.38,14,14,0,0,1-3.85,2.39c2.78-1.61,2.93-4.07,2.91-6.18Z" transform="translate(-145.79 -146.09)"/><path class="cls-28" d="M291.05,177a9.74,9.74,0,0,1,4.27,5.74c.79-1.81,2.53-1.81,4.29-.79,2.48,1.43,5,4.86,4.94,8.11,0,2.5-1.42,5-5.51,6.69-1.38.57-3.28,1.2-3.68,1l-.09,0-.07-.05c-.48-.27-2.29-3.07-3.66-5.23-4.07-6.37-5.5-10.56-5.46-13C286.06,176.09,288.58,175.57,291.05,177Z" transform="translate(-145.79 -146.09)"/><path class="cls-15" d="M368.46,239.81l-.16,8.41c0,2.36.9,14.88-.38,16.59a7.74,7.74,0,0,0,2.19-1.45,2.59,2.59,0,0,0,.39-1.46l.05-23.12a6.69,6.69,0,0,0-3-5.22l-22-12.7a2.16,2.16,0,0,0-2.14-.21l-1.7,1c.06,0,5.07,2.76,5.17,2.81l18.71,10.42A19.88,19.88,0,0,1,368.46,239.81Z" transform="translate(-145.79 -146.09)"/><path class="cls-11" d="M365.84,234.56l-22-12.71c-1.65-1-3-.18-3,1.72l0,23.13a6.63,6.63,0,0,0,3,5.21l1.89,1.09c-.33,1-1.79,5.29-1.6,5.39l9.85-.63,11.87,6.85c1.65,1,3,.18,3-1.72l0-23.12A6.64,6.64,0,0,0,365.84,234.56Z" transform="translate(-145.79 -146.09)"/><path class="cls-28" d="M360.53,251.57c-3.76,2.12-8.42-2.7-10.17-5.54-1.51-2.46-4.46-10-.26-12.42-4.56.59-4.12,8.24-1.79,12.45C350.38,249.79,356.31,256.17,360.53,251.57Z" transform="translate(-145.79 -146.09)"/><path class="cls-12" d="M365.27,246a20.25,20.25,0,0,0-1.79-5.62c-1.75-3.81-5.07-7.94-8.75-9.75a9.26,9.26,0,0,0-3.52-1,5.65,5.65,0,0,0-2.71.48c-.47.23-.94.53-1.4.79,10.07-3.95,20.65,19.76,14.38,24.74,2.21-1.28,3.09-2.22,3.65-4.4A12.73,12.73,0,0,0,365.27,246Z" transform="translate(-145.79 -146.09)"/><path class="cls-16" d="M354.27,251.65a16.15,16.15,0,0,1-7.34-12.71c0-4.68,3.32-6.57,7.38-4.22a16.17,16.17,0,0,1,7.34,12.72c0,4.67-3.32,6.56-7.38,4.21Zm.05-20.12c-5.6-3.24-10.16-.64-10.18,5.8s4.51,14.28,10.12,17.52,10.16.64,10.18-5.8S359.93,234.76,354.32,231.53Z" transform="translate(-145.79 -146.09)"/><polygon class="cls-12" points="203.81 89.94 206.2 88.55 215.23 99.22 212.84 100.61 207.78 95.02 203.81 89.94"/><polygon class="cls-14" points="203.81 89.94 212.84 100.61 203.78 100.83 203.81 89.94"/><path class="cls-34" d="M208.24,253.62c-.23.47-.44.95-.67,1.41l-1,1.92c-.21-.94-1-1.3-1.54-.83a1.72,1.72,0,0,0-.46.63c-.1-.25-.82-.83-1.81.56a1.09,1.09,0,0,0-1.19.69,7.1,7.1,0,0,0-.41,1,4,4,0,0,0-.29,1.36c0,.93.05,1.93,0,3s-1.39,2.72-2.13,3.6l4.46,1.41a22.56,22.56,0,0,1,1.73-2.17c.7-.71,1.58-.79,2.25-1.34a8.66,8.66,0,0,0,1.22-1.61c.53-.75.82-1.55,1.32-2.36a2.19,2.19,0,0,0,.5-1.61,17.11,17.11,0,0,1,.34-1.89c-.92-.46-1.64.67-1.63,1.78a2.66,2.66,0,0,0-1,1.34c-.73-1-.29-1.35,0-2.58a12.64,12.64,0,0,0,1.05-2.45c.14-.38.28-.77.44-1.19a1.18,1.18,0,0,0-.27-1.3C209.05,252.93,208.61,253,208.24,253.62Z" transform="translate(-145.79 -146.09)"/><path class="cls-35" d="M210.09,257.35c-.65.09-1.11,1-1.1,1.87a2.63,2.63,0,0,0-1,1.27,6.12,6.12,0,0,1,1.17-1.17,2.79,2.79,0,0,1,.89-2Zm-3.4-.56-.08.16a1.67,1.67,0,0,0-.25-.59,2.41,2.41,0,0,1-.63,1.42,1.6,1.6,0,0,0,1-1Zm-2.09-.05a.5.5,0,0,0-.24-.24,3.64,3.64,0,0,1-.5,1.28,2.15,2.15,0,0,0,.74-1Zm-1.78.55,0,0h-.28a3,3,0,0,1-.52,1.43A2.3,2.3,0,0,0,202.82,257.29Z" transform="translate(-145.79 -146.09)"/><path class="cls-36" d="M191.41,278c3.41-4.53,5.77-8.75,8.91-13.47a7.21,7.21,0,0,1,4.71,1.88,152.91,152.91,0,0,1-6.45,16.74c-3.11,4-19.37,20.47-20.61,15.65-.71-2.75,1-7.25,1.78-8.62a19,19,0,0,1,2.85-3.55C184.87,284.24,188,281.49,191.41,278Z" transform="translate(-145.79 -146.09)"/><path class="cls-24" d="M199.89,309.47c5.37,2.41,9.54,7.88,6.81,16.31L204.29,329l-3.49-5.45c.6-4.15,0-7.39-2.33-11.88C199,310.92,199.42,310.21,199.89,309.47Z" transform="translate(-145.79 -146.09)"/><path class="cls-37" d="M192.28,405.15c.68-.27,2.2-3.29,4.79-3,3.11.35,6.47-1.79,9.21-2.11.49-.05,1.09-.24,1.42-.05,1.41.87,1.67,1.89.68,3.33a19.26,19.26,0,0,1-3.3,3.45,23.59,23.59,0,0,1-3.85,2.82c-1.18.65-2,.66-3.09,1.19l0,1a5.25,5.25,0,0,1-2.37,1.58c-1.56.3-3.51-.54-5-1.85-.32-1.64-1.07-3.22-.49-5.74Z" transform="translate(-145.79 -146.09)"/><path class="cls-38" d="M194.54,336.58c.6,6.67,4.21,31,3.27,36.85-1.4,8.81.39,21.41.41,30.75a5.46,5.46,0,0,1-1.94,3.69c-2,1.64-5.05,2.41-6,.88-1.26-8.36-3.7-18.71-4.43-23.35-.81-5.2-.67-10.48.64-13.89a219.79,219.79,0,0,0-5.34-24.06c-.76-2.4-5.63-10.31-2.17-16.74Z" transform="translate(-145.79 -146.09)"/><path class="cls-37" d="M174.59,412.36c.73,0,3.19-2.33,5.53-1.16,2.8,1.4,6.68.55,9.37,1.19.48.12,1.11.15,1.34.44,1,1.3.93,2.35-.49,3.36a20,20,0,0,1-4.3,2.11,23.48,23.48,0,0,1-4.58,1.31c-1.33.21-2.12-.06-3.31.06l-.32.95a5.2,5.2,0,0,1-2.77.67c-1.56-.25-3.1-1.71-4-3.45.26-1.65.1-3.39,1.51-5.56Z" transform="translate(-145.79 -146.09)"/><path class="cls-39" d="M192.29,381.34c-4,9.17-7.25,22.68-10.51,32-1.23,2.61-8.52,3.52-10.35.16,1.6-8.28,3.71-20.68,5.23-25.06,1.27-3.65,1.92-5.78,4.15-8.72.78-3.57,5.27-20.54,6.44-27.35-.83-4.47-2.68-12.25,3.14-18.8,2.79,2,10.51,3.22,14.42,1,.07,2-.53,4.3-.31,6.82,1.09,4.88-1.4,9.18-2.81,14.23A207.49,207.49,0,0,1,192.29,381.34Z" transform="translate(-145.79 -146.09)"/><path class="cls-40" d="M178.43,312.45c.27,5.76-.13,8.85,1.24,17.38,1.07,6.28,14.53,13.64,25.55,7.23-.77-5-1.92-7.61-1.23-12.7,1-7.63,5.86-17.46,3.52-23.46a6.38,6.38,0,0,0-2.37-2.71c-2.59-2.08-14.73-8.24-18.78-8.72C174.61,288,178.17,306.75,178.43,312.45Z" transform="translate(-145.79 -146.09)"/><path class="cls-34" d="M201.25,289.2c-.68.34-4.16-.15-4.06.16.05,1.39.42,2.3.61,4-.09,1.54-8.87,2-9.1-2,.16-1.71.35-3.87-.15-4.67-.81-1.31-2.47-2.77-3.06-4.75-.94-3.18-.6-6.7,2.36-9.05,5.4-4.29,12.3-1.24,14.05,5,.35,1.22-.62,1.89-.59,2.93,0,.21.28.42.5.88C202.12,282.35,202.09,288.79,201.25,289.2Z" transform="translate(-145.79 -146.09)"/><path class="cls-34" d="M201.11,289.2a5.49,5.49,0,0,1-3-.36,5.28,5.28,0,0,1-1.33-.92c-.46-.19-1.49-1.65.11-4s-7.86,3.53-8.36,2.73c-.81-1.31-2.47-2.77-3.06-4.75-.94-3.18-.6-6.7,2.36-9.05,5.4-4.29,12.3-1.24,14.05,5,.35,1.22-.62,1.89-.59,2.93,0,.21.28.42.5.88C202.12,282.35,201.94,288.76,201.11,289.2Z" transform="translate(-145.79 -146.09)"/><path class="cls-41" d="M197.24,284c-1.93-1.81-3.8,3.93-.69,3.87C195.34,286.6,196.26,284.57,197.24,284Z" transform="translate(-145.79 -146.09)"/><path class="cls-42" d="M197.23,284.85c.29-.8.05-1.09-.31-1a2.29,2.29,0,0,0-1.22,1.48c-.46,1.34.2,3,1.49,2.37-1.11.07-1-1.27-.67-2.1C196.75,285,197.1,284.64,197.23,284.85Z" transform="translate(-145.79 -146.09)"/><path class="cls-41" d="M196.72,285.22c.31.58.42.92.32,1.12s-.29.3-.64,0A1.94,1.94,0,0,1,196.72,285.22Z" transform="translate(-145.79 -146.09)"/><path class="cls-43" d="M188.72,287.46c-.9-1.88-2.49-3-3.23-5.53-.94-3.18-.6-6.7,2.36-9.05a8.45,8.45,0,0,1,12.29,1.49c.15.24-1.48,1-.94,2.2.77,2,.76,2.92.45,3.36-1.21,1.72-1.23,2-1.16,4.58l-.68.55c-.29-2.05-1.2-1.89-2.08-1.21-1.55,1.2-2.15,3.92-4.72,4.45A2.26,2.26,0,0,1,188.72,287.46Z" transform="translate(-145.79 -146.09)"/><path class="cls-43" d="M198.46,283.92a5.19,5.19,0,0,0,.85,2.74,2.79,2.79,0,0,0,1.32.43,8,8,0,0,1,.28-1.41,2.62,2.62,0,0,1,1.11-1.56,1.66,1.66,0,0,1-.06.84,2,2,0,0,0-.42,1,3.88,3.88,0,0,0-.15,1.29l.34.05c.05,0,.06-.36.15-.35.05,1.06.06,2.48-.18,2.57a8.5,8.5,0,0,1-3-.62c-1-.39-.68-.6-.77-1.74-.08-.94-.07-2-.2-3Z" transform="translate(-145.79 -146.09)"/><path class="cls-44" d="M185.43,279.88c1-.7,3.15-1.4,7.25-1.69a15.57,15.57,0,0,0,6.55-1.78,3.31,3.31,0,0,0,1.09-5.23c-2.12-1.88-7.6-1.68-11.25.2C186.4,272.75,184.93,275.47,185.43,279.88Z" transform="translate(-145.79 -146.09)"/><path class="cls-44" d="M200.6,275.2c-.8,1-4.25-1.32-9.06-.43,1-3.19,1.62-3.86,3.07-4.79,1.89-1.22,5.06-.72,6.06.95A4,4,0,0,1,200.6,275.2Z" transform="translate(-145.79 -146.09)"/><path class="cls-45" d="M188.82,290c.14,2,5.14,3.47,8.78,2.13l-.06-.39a7.92,7.92,0,0,1,1.89,3.36c-3.93.94-10,.78-11.47-2.3C187.63,292.09,188.07,290.8,188.82,290Z" transform="translate(-145.79 -146.09)"/><path class="cls-46" d="M201.09,299.57C197,304,194.48,314.36,191.26,322a3.11,3.11,0,0,0,.43,3.54c1.95,1.85,6.19,1.05,7.13-1.69a87.64,87.64,0,0,0,7.37-11.93c.47-1,.73-1.45,1.19-2.45,1.26-2.79,1.57-5.71.73-7.59C206.68,298.69,202.82,297.71,201.09,299.57Z" transform="translate(-145.79 -146.09)"/><path class="cls-42" d="M200.25,340.73c-.71.81-1.84,1.1-1.46,1.69,1.08,1.67,1.48,6,3.89,7.28.83-1.55,1.73-6.9,1.42-8.21l-1.78-1.68Z" transform="translate(-145.79 -146.09)"/><path class="cls-47" d="M192.54,320.75a3.64,3.64,0,0,0-1.56,3.46c.32,4.46,3.42,13.26,5.69,16.55a4,4,0,0,0,1.41,1.08c.23.32.51.87.75,1.21-.24-.62,3.07-3,4.13-2.66-.17-.42-.34-.87-.51-1.34a6.81,6.81,0,0,0-.18-2.13c-.73-4.12-2.13-10.14-3.78-13.48Z" transform="translate(-145.79 -146.09)"/><path class="cls-48" d="M221.93,326.48c-2.86,3.33-4.39,10.82-6.53,16.42a2.25,2.25,0,0,0,.41,2.54c1.45,1.28,4.48.6,5.09-1.4a63.34,63.34,0,0,0,5-8.78c.32-.71.5-1.06.8-1.8C229,327.94,223.83,324.28,221.93,326.48Z" transform="translate(-145.79 -146.09)"/><path class="cls-42" d="M222.36,356.16c-.5.6-1.31.84-1,1.26.82,1.17,1.7,4,3.48,4.88a27.56,27.56,0,0,0-.29-5.54l-.71-1.31Z" transform="translate(-145.79 -146.09)"/><path class="cls-48" d="M216.3,342a2.65,2.65,0,0,0-1,2.54,33.29,33.29,0,0,0,4.51,11.78,3,3,0,0,0,1,.74c.17.23.39.62.57.85-.19-.44,2.13-2.24,2.9-2q-.19-.45-.39-1a5.49,5.49,0,0,0-.18-1.53,43.1,43.1,0,0,0-3.07-9.61Z" transform="translate(-145.79 -146.09)"/><path class="cls-34" d="M215.41,409.92a15.21,15.21,0,0,1-1.28,5.27c-.35.39-.79.62-1,1.06-1.11,2.34-1.35,4.6-.58,16.64l2.83.06.36-4.25c.35-1.72,1.32-4.25,1.71-5.81.85-3.4.93-5.11,1.45-7.61Z" transform="translate(-145.79 -146.09)"/><path class="cls-49" d="M209.48,424.42a4.73,4.73,0,0,1-1-.14c-.14-.16-.42-1-.22-1.11C208.66,422.93,209.38,424.19,209.48,424.42Z" transform="translate(-145.79 -146.09)"/><path class="cls-49" d="M211.05,419.6c.34,1.08-.14,2.12-.48,3.23-1.18,3.91-1.87,4.13-1.37,5.89a7.71,7.71,0,0,0,1.72,3.1,10,10,0,0,0,2,2.18c1.49,1,2.8,1.5,2.48-.55a9.55,9.55,0,0,0-.48-1.9c-1.05-2.44-2.27-3.51-1.61-6.55.49-2.26,1.27-3.74.26-5.27Z" transform="translate(-145.79 -146.09)"/><path class="cls-12" d="M211.29,417.17a12.75,12.75,0,0,1-3,6c.24-.07.84.55,1.17,1.23,2.45-2.81,3.63-4.17,4.39-3a40.94,40.94,0,0,1-.76,4.28,4.29,4.29,0,0,0,.08,2.23c1,2.3,2.72,5.66,2,6.76a3.94,3.94,0,0,0,.5-2.2c0-1.59-.28-3.74-.31-5.06,0-1.79.63-3.34.74-5.78a19.84,19.84,0,0,0,0-2c-.1-1.72-.29-4-1.5-4.65a3.13,3.13,0,0,0-2.13.23A2.57,2.57,0,0,0,211.29,417.17Z" transform="translate(-145.79 -146.09)"/><path class="cls-50" d="M228,386.54l8.62-25,.28-6.87a6.47,6.47,0,0,0-.9-2.78c-4.54,1.33-7.08,2.78-12,2.6-1.46,2.18-3.47,6.26-3.54,9.34-.15,6,.33,10-1.51,20-5.44,18.34-2.62,17.7-4.7,29.88-.18,1.3,3.82,2.34,5.19,1.53Z" transform="translate(-145.79 -146.09)"/><path class="cls-42" d="M231.35,420c-.07,1.92-1.89,3.77-2.1,5-.49,2.85,1.58,1.37,3.92,5,.94,0,3,3.37,5.8,3.55a1.5,1.5,0,0,0,.52-2.62c-.57-.33-1.07-.08-1.54-.49-1-.86-2.11-7.89-1.88-9.92Z" transform="translate(-145.79 -146.09)"/><path class="cls-12" d="M230.28,422.78c2.27.28,4.39,5.82,6.15,8.23.85,1.17,2.66,0,1.92-.35a18.23,18.23,0,0,1,2.76,0c1.43.23.93,1.66,0,2.33-2.15,1.48-4.07,2.32-6,1.34a9.54,9.54,0,0,1-1.2-.8,6.29,6.29,0,0,1-.8-.65,21.74,21.74,0,0,1-1.45-3c-.19-.35-.35-.42-.47-.33-.24.34,0,5.32.13,6.32-.07.28-1,.51-1.23.29l-1.81-8.85a3.21,3.21,0,0,1,.24-2.27A19.43,19.43,0,0,1,230.28,422.78Z" transform="translate(-145.79 -146.09)"/><path class="cls-49" d="M236.21,434.73a3.94,3.94,0,0,1-1.16-.38,9.54,9.54,0,0,1-1.2-.8,6.29,6.29,0,0,1-.8-.65c-.68-.82-1-2.34-1.78-3.39.26-.15.92-.14,1.59,1,1,1.83,1.68,3.19,3,4.08A1.92,1.92,0,0,0,236.21,434.73Z" transform="translate(-145.79 -146.09)"/><path class="cls-51" d="M243,381.25a82.87,82.87,0,0,0,1.09-15.37,18.67,18.67,0,0,0-2.39-9.58c-4.34,1.34-7.57,2.65-12.48,2.48A15.35,15.35,0,0,0,227.5,367c.51,6,2.85,10.48,3.52,21.19-1.69,12-.45,20.07-.2,31.69,0,1.3,4.19,2.33,5.42,1.52C238.83,407.74,240.42,394.56,243,381.25Z" transform="translate(-145.79 -146.09)"/><path class="cls-52" d="M225,325.57c-5.08-.58-5.09,7.79-3.32,11.73,4.59,10.24,1.62,11.83,2,16.5l-.09,1.88c4.36,6.5,17,6,18.54,1.29-4.28-10.5,1.26-19.54.28-22.4a23.23,23.23,0,0,0-6.59-5.17A34.15,34.15,0,0,0,225,325.57Z" transform="translate(-145.79 -146.09)"/><path class="cls-42" d="M264.15,317.58c1.87-1.73,4.24-4.76,6.16-5.42,1.11-.88,2.75-2.29,3.8-3.14.77-.63,1.43.78.79,1.42s-2.34,2.22-2.35,2.22l-.07,0a4.27,4.27,0,0,1,1,2.58c0,1.06-2,2.83-3.23,4.07-1.09,1.09-2.73.77-3.45,1.6C265.18,320.58,264.6,318.94,264.15,317.58Z" transform="translate(-145.79 -146.09)"/><path class="cls-53" d="M238.41,331.54a24.9,24.9,0,0,1,5.37-1.12c2.56-.44,4.81-.91,7.65-1.42a14.15,14.15,0,0,1,1.88-.22c.82-1.7,9.1-9.8,10.84-11.23a7.69,7.69,0,0,1,3.09,3.08c-2.65,3.42-5.05,8.4-7.75,11.22a15.26,15.26,0,0,1-1.67,2.15,7.8,7.8,0,0,1-2.12,1.13,18.38,18.38,0,0,1-2.42,1c-2.32.81-7.39,2.86-11.43,3.51-3,.47-4.93-.2-5.72-1.41C234.31,335.45,235.71,332.79,238.41,331.54Z" transform="translate(-145.79 -146.09)"/><path class="cls-41" d="M226.61,327.88c-.4,1.66,5.69,3.46,7.77,2.56l.05-.41c.53-2.48,1.06-4.6,1.43-6.34,1,.41,3.35.53,3.56.2-6.41-5.12-13.91-8.91-14.88-6.33.64,1.88,2.28,3.21,3.1,4.43a3.79,3.79,0,0,1,.43,1.68h0A18.28,18.28,0,0,1,226.61,327.88Z" transform="translate(-145.79 -146.09)"/><path class="cls-34" d="M239.39,323.92c-.56.36-4.48-.95-4.8-.93-3.05.15-6.34-.1-7-1-.82-1.22-2.46-2.55-3.1-4.43-1-3-.81-6.37,1.92-8.72,4.76-4.09,12.23-1.09,13.3,3.54.44,1.9-.1,2.06,0,3.33.16,2.34.43,1.46.21,5.17C239.88,322.29,239.75,323.68,239.39,323.92Z" transform="translate(-145.79 -146.09)"/><path class="cls-54" d="M227.49,325.64c.16,1.52,4.43,2.59,7,2,.28-.06.45-.11.55-.29a5.52,5.52,0,0,1,1.53,2.45c-2.23,2.16-9.3.89-10.16-1.63A1.89,1.89,0,0,1,227.49,325.64Z" transform="translate(-145.79 -146.09)"/><path class="cls-55" d="M215.7,320.61c-4.07,3.41-6.36,9.54-4.51,13,1.68,3.16,5.77,5,4.51,7-1,1.64-3.49,3.3-.57,6,1.5,1.37,5.16,5.05,12.64,3.14,7.3-1.85,14.95-8.15,8.81-15-6.47-7.25-2.69-8.86,1-14.56,2-3,3.72-9,2-11.18-2.88-3.8-4.8-1.07-7.57-2.41-5.29-2.56-9.63-.73-12.12,3.28C217.73,313.4,218.94,317.91,215.7,320.61Z" transform="translate(-145.79 -146.09)"/><path class="cls-10" d="M342.52,296.77l-97.45-55.35-.32,3.44,97.45,55.35.32-3.44ZM279,267,342,302.3l-.32,3.45-63.05-35.31L279,267Zm61.29,54.73L242.8,266.38,244.12,252l97.45,55.35Z" transform="translate(-145.79 -146.09)"/><path class="cls-28" d="M343.36,359.56,327.8,318.47l-16.14,6.08,15.67,41.38c.95,1.64,8.18-.68,9.3-1.12C338.35,364.15,343.94,361.53,343.36,359.56Z" transform="translate(-145.79 -146.09)"/><path class="cls-56" d="M325.75,318a31.88,31.88,0,0,0-11.42,3.89c-3.34,1.95-3.61,3.36-.63,3.15a32.11,32.11,0,0,0,11.45-3.9C328.47,319.19,328.74,317.78,325.75,318Z" transform="translate(-145.79 -146.09)"/><path class="cls-57" d="M323,320.2l-3.78-10.05-6.77,3,3.61,9.62c.07.16.36.24.88.21a12.83,12.83,0,0,0,3.84-1.13c.27-.12.54-.25.8-.39a4.17,4.17,0,0,0,1.4-1.09A.36.36,0,0,0,323,320.2Z" transform="translate(-145.79 -146.09)"/><path class="cls-24" d="M323.64,304.83c-5.5,3.21-12.24,1.26-17.36-1.7-6.17-3.56-11.44-9.21-15.33-15.11a58.37,58.37,0,0,1-6-11.83,46.38,46.38,0,0,1-2.84-12.35,27.73,27.73,0,0,1,1-10.33c.56-1.82,3.62-6.53,6.05-8.14a10.54,10.54,0,0,0-6.82,2.27c-6.93,4.72-9.4,11-7.81,22.71,2,15,13.78,31.56,22.64,37.19,4.21,2.69,11.79,5.06,16.69,3.88C316.89,310.67,320,308.38,323.64,304.83Z" transform="translate(-145.79 -146.09)"/><path class="cls-28" d="M334,285.92c-1.35-10.65-6.53-21.65-13.18-30.1-4.86-6.19-13.46-14.27-22.69-16.28A16.21,16.21,0,0,0,286.52,241l-6.86,4c25.16-7.27,62.58,42.53,39.68,68.28l6.86-4a13.74,13.74,0,0,0,1.62-1.12,16.23,16.23,0,0,0,5-7.13C334.52,296.33,334.66,290.81,334,285.92Z" transform="translate(-145.79 -146.09)"/><path class="cls-58" d="M302.08,250c-13.47-7.77-25.21-1.41-25.25,14.08s10.85,34.34,24.31,42.12a26.6,26.6,0,0,0,10,3.12c8.9.94,15.18-5.49,15.21-17.2C326.44,276.67,315.55,257.82,302.08,250Z" transform="translate(-145.79 -146.09)"/><path class="cls-59" d="M299.42,307.12C286,299.34,275.06,280.48,275.11,265s11-21.73,24.47-13.95,24.36,26.63,24.32,42.12-11,21.73-24.48,13.95Zm.17-60.22c-15.47-8.93-28-1.76-28.09,16s12.44,39.43,27.91,48.37,28.06,1.76,28.11-16S315.07,255.84,299.59,246.9Z" transform="translate(-145.79 -146.09)"/></svg>